<svg xmlns="http://www.w3.org/2000/svg" version="1.1" xmlns:xlink="http://www.w3.org/1999/xlink" xmlns:svgjs="http://svgjs.com/svgjs" width="600" height="560" preserveAspectRatio="none" viewBox="0 0 600 560"><g clip-path="url(&quot;#SvgjsClipPath1089&quot;)" fill="none"><circle r="93.335" cx="49.78" cy="20.82" stroke="#0a53e8" stroke-opacity="0.79" stroke-width="2"></circle><circle r="128.155" cx="415.94" cy="156.94" stroke="#0a53e8" stroke-opacity="0.79" stroke-width="2"></circle><circle r="67.84" cx="591.93" cy="529.66" stroke="#0a53e8" stroke-opacity="0.79" stroke-width="2"></circle><circle r="145.625" cx="558.8" cy="19.83" stroke="#0a53e8" stroke-opacity="0.79" stroke-width="2"></circle><circle r="123.225" cx="210.01" cy="426.9" stroke="#0a53e8" stroke-opacity="0.79" stroke-width="2"></circle><circle r="51.57" cx="514.15" cy="475.96" stroke="#0a53e8" stroke-opacity="0.79" stroke-width="2"></circle><circle r="107.97" cx="221.55" cy="369.09" stroke="#0a53e8" stroke-opacity="0.79" stroke-width="2"></circle><circle r="120.54" cx="29.9" cy="135.43" stroke="#0a53e8" stroke-opacity="0.79" stroke-width="2"></circle><circle r="181.55" cx="165.5" cy="442.27" stroke="#0a53e8" stroke-opacity="0.79" stroke-width="2"></circle><circle r="79.695" cx="459.91" cy="119.46" stroke="#0a53e8" stroke-opacity="0.79" stroke-width="2"></circle><circle r="173.135" cx="521.83" cy="123.18" stroke="#0a53e8" stroke-opacity="0.79" stroke-width="2"></circle><circle r="101.685" cx="520" cy="471.23" stroke="#0a53e8" stroke-opacity="0.79" stroke-width="2"></circle><circle r="116.67" cx="404.09" cy="206.57" stroke="#0a53e8" stroke-opacity="0.79" stroke-width="2"></circle><circle r="186.405" cx="2.82" cy="306.87" stroke="#0a53e8" stroke-opacity="0.79" stroke-width="2"></circle><circle r="133.98" cx="528.74" cy="500.57" stroke="#0a53e8" stroke-opacity="0.79" stroke-width="2"></circle><circle r="79.39" cx="0.45" cy="495.36" stroke="#0a53e8" stroke-opacity="0.79" stroke-width="2"></circle><circle r="102.885" cx="385.6" cy="60.1" stroke="#0a53e8" stroke-opacity="0.79" stroke-width="2"></circle><circle r="146.315" cx="126.97" cy="109.45" stroke="#0a53e8" stroke-opacity="0.79" stroke-width="2"></circle><circle r="94.41" cx="273.56" cy="344.96" stroke="#0a53e8" stroke-opacity="0.79" stroke-width="2"></circle><circle r="53.55" cx="37.54" cy="47.77" stroke="#0a53e8" stroke-opacity="0.79" stroke-width="2"></circle><circle r="51.945" cx="150.37" cy="163.53" stroke="#0a53e8" stroke-opacity="0.79" stroke-width="2"></circle><circle r="122.405" cx="488.7" cy="533.44" stroke="#0a53e8" stroke-opacity="0.79" stroke-width="2"></circle><circle r="128.94" cx="66.53" cy="91.04" stroke="#0a53e8" stroke-opacity="0.79" stroke-width="2"></circle><circle r="175.945" cx="134.87" cy="37.76" stroke="#0a53e8" stroke-opacity="0.79" stroke-width="2"></circle><circle r="61.545" cx="572.93" cy="544.46" stroke="#0a53e8" stroke-opacity="0.79" stroke-width="2"></circle><circle r="94.155" cx="392.88" cy="159.06" stroke="#0a53e8" stroke-opacity="0.79" stroke-width="2"></circle><circle r="181.395" cx="296.7" cy="160.43" stroke="#0a53e8" stroke-opacity="0.79" stroke-width="2"></circle><circle r="147.855" cx="81.71" cy="135.07" stroke="#0a53e8" stroke-opacity="0.79" stroke-width="2"></circle><circle r="55.33" cx="578.99" cy="218.47" stroke="#0a53e8" stroke-opacity="0.79" stroke-width="2"></circle><circle r="130.815" cx="487.11" cy="270.77" stroke="#0a53e8" stroke-opacity="0.79" stroke-width="2"></circle><circle r="47.58" cx="189.18" cy="531.32" stroke="#0a53e8" stroke-opacity="0.79" stroke-width="2"></circle><circle r="163.065" cx="365.83" cy="392.07" stroke="#0a53e8" stroke-opacity="0.79" stroke-width="2"></circle><circle r="174.695" cx="383.8" cy="354.44" stroke="#0a53e8" stroke-opacity="0.79" stroke-width="2"></circle><circle r="78.435" cx="338.45" cy="331.49" stroke="#0a53e8" stroke-opacity="0.79" stroke-width="2"></circle><circle r="58.42" cx="523.81" cy="84.77" stroke="#0a53e8" stroke-opacity="0.79" stroke-width="2"></circle><circle r="180.045" cx="561.68" cy="374.78" stroke="#0a53e8" stroke-opacity="0.79" stroke-width="2"></circle><circle r="78.31" cx="418.88" cy="441.66" stroke="#0a53e8" stroke-opacity="0.79" stroke-width="2"></circle><circle r="113.725" cx="393.6" cy="437.01" stroke="#0a53e8" stroke-opacity="0.79" stroke-width="2"></circle><circle r="184.46" cx="504.89" cy="361.44" stroke="#0a53e8" stroke-opacity="0.79" stroke-width="2"></circle><circle r="98.5" cx="374.2" cy="309.32" stroke="#0a53e8" stroke-opacity="0.79" stroke-width="2"></circle><circle r="114.94" cx="402.92" cy="236.24" stroke="#0a53e8" stroke-opacity="0.79" stroke-width="2"></circle><circle r="93.75" cx="91.18" cy="371.42" stroke="#0a53e8" stroke-opacity="0.79" stroke-width="2"></circle><circle r="97.445" cx="75.35" cy="509.19" stroke="#0a53e8" stroke-opacity="0.79" stroke-width="2"></circle><circle r="62.08" cx="455.45" cy="462.66" stroke="#0a53e8" stroke-opacity="0.79" stroke-width="2"></circle><circle r="52.32" cx="2.28" cy="73.17" stroke="#0a53e8" stroke-opacity="0.79" stroke-width="2"></circle><circle r="100.95" cx="588.11" cy="440.95" stroke="#0a53e8" stroke-opacity="0.79" stroke-width="2"></circle><circle r="183.615" cx="273.6" cy="484.62" stroke="#0a53e8" stroke-opacity="0.79" stroke-width="2"></circle><circle r="48.94" cx="128.67" cy="106.31" stroke="#0a53e8" stroke-opacity="0.79" stroke-width="2"></circle><circle r="66.765" cx="131.65" cy="172.65" stroke="#0a53e8" stroke-opacity="0.79" stroke-width="2"></circle><circle r="161.245" cx="186.77" cy="91.8" stroke="#0a53e8" stroke-opacity="0.79" stroke-width="2"></circle><circle r="79.03" cx="206.95" cy="134.96" stroke="#0a53e8" stroke-opacity="0.79" stroke-width="2"></circle><circle r="186.33" cx="558" cy="263.76" stroke="#0a53e8" stroke-opacity="0.79" stroke-width="2"></circle><circle r="111.78" cx="311.92" cy="220.08" stroke="#0a53e8" stroke-opacity="0.79" stroke-width="2"></circle><circle r="133.605" cx="567.13" cy="403.2" stroke="#0a53e8" stroke-opacity="0.79" stroke-width="2"></circle><circle r="47.355" cx="95.55" cy="223.62" stroke="#0a53e8" stroke-opacity="0.79" stroke-width="2"></circle><circle r="145.095" cx="339.61" cy="148.55" stroke="#0a53e8" stroke-opacity="0.79" stroke-width="2"></circle><circle r="177.5" cx="321.8" cy="359.62" stroke="#0a53e8" stroke-opacity="0.79" stroke-width="2"></circle><circle r="92.54" cx="3.55" cy="334.78" stroke="#0a53e8" stroke-opacity="0.79" stroke-width="2"></circle><circle r="55.47" cx="169.67" cy="213.26" stroke="#0a53e8" stroke-opacity="0.79" stroke-width="2"></circle><circle r="127.755" cx="433.71" cy="53.82" stroke="#0a53e8" stroke-opacity="0.79" stroke-width="2"></circle><circle r="100.915" cx="344.04" cy="143.08" stroke="#0a53e8" stroke-opacity="0.79" stroke-width="2"></circle><circle r="133.42" cx="334.15" cy="214.04" stroke="#0a53e8" stroke-opacity="0.79" stroke-width="2"></circle><circle r="144.905" cx="42.19" cy="27.3" stroke="#0a53e8" stroke-opacity="0.79" stroke-width="2"></circle><circle r="58.28" cx="139.08" cy="332.74" stroke="#0a53e8" stroke-opacity="0.79" stroke-width="2"></circle><circle r="75.165" cx="174.42" cy="464.42" stroke="#0a53e8" stroke-opacity="0.79" stroke-width="2"></circle><circle r="53.105" cx="411.75" cy="426.28" stroke="#0a53e8" stroke-opacity="0.79" stroke-width="2"></circle><circle r="51.165" cx="570.89" cy="540.16" stroke="#0a53e8" stroke-opacity="0.79" stroke-width="2"></circle></g><defs><clipPath id="SvgjsClipPath1089"><rect width="600" height="560" x="0" y="0"></rect></clipPath></defs></svg>